<?xml version="1.0" encoding="utf-8"?>
<!-- Generator: Adobe Illustrator 22.0.0, SVG Export Plug-In . SVG Version: 6.00 Build 0)  -->
<svg version="1.1" id="Layer_1" xmlns="http://www.w3.org/2000/svg" xmlns:xlink="http://www.w3.org/1999/xlink" x="0px" y="0px"
	 viewBox="0 0 960 560" style="enable-background:new 0 0 960 560;" xml:space="preserve">
<style type="text/css">
	.st0{fill:#1D6BC3;}
	.st1{fill:#D7263D;}
	.st2{fill:#4D4D4D;}
</style>
<g>
	<g>
		<g>
			<path class="st0" d="M394.3,228.7c0.5-1.1,2.3-3.3,3.2-3.3c0.8,0,1.7,0.3,1.8,0.6l17.8,44.1c1.1,2.7,1.7,4.4,2.4,6.3
				c1.5,3.6,6.2,3.7,6.9,3.7c0.4,0.8,0.5,2.9,0.2,3.2c-3.5-0.2-7.8-0.7-11.7-0.7c-4,0-10,0.5-13.1,0.7c-0.4-0.4-0.4-3.2,0-3.2
				c1.5,0,3.9-0.5,5.1-1.6c0.5-0.4,0.8-0.9,0.8-1.5c0-0.8-5.2-13.2-5.2-13.2s-0.3-0.3-0.6-0.3c-3.3-0.2-6.2-0.1-8.4-0.1
				c-3.6,0-6,0-9,0.1c-0.3,0-0.5,0.3-0.6,0.4c0,0-2.2,4.9-3.1,7.3c-0.9,2.2-1.9,5.3-1.9,5.9c0,2.3,6,3,6.7,3
				c0.5,0.6,0.3,2.9,0.1,3.2c-3-0.3-5.6-0.7-9.4-0.7c-4,0-6.4,0.3-9.5,0.7c-0.3-0.3-0.5-2.2-0.2-3.1c1,0,5.2-1.4,6.1-2.8
				c1.5-2.4,2-3.7,3-6.1L394.3,228.7z M385.9,258.6c0,0,0,0.3,0.2,0.3c1.7,0.2,5.2,0.3,7.2,0.3c2.7,0,4.3,0,7-0.2
				c0.2,0,0.3-0.4,0.3-0.4l-7.2-17L385.9,258.6z"/>
			<path class="st0" d="M386,284.1l-1.4-0.2c-2.7-0.3-5-0.6-8.3-0.6c-3.5,0-5.7,0.3-8.3,0.6l-1.4,0.2l-0.2-0.2
				c-0.6-0.6-0.7-2.8-0.3-3.9l0.2-0.5h0.5c0.9,0,4.8-1.4,5.5-2.4c1.4-2.4,2-3.6,3-6l18.5-42.6c0.5-1,2.4-3.7,3.9-3.7
				c0.9,0,2.1,0.4,2.4,0.9l0.1,0.1l17.8,44.1c0.6,1.4,1,2.6,1.4,3.6c0.3,0.9,0.6,1.8,1,2.6c1.3,3.2,5.7,3.3,6.2,3.3h0.4l0.2,0.4
				c0.5,0.8,0.8,3.4,0.1,4.1l-0.2,0.2l-0.3,0c-1.3-0.1-2.7-0.2-4.1-0.3c-2.5-0.2-5.1-0.4-7.5-0.4c-2.9,0-6.7,0.3-9.9,0.5
				c-1.2,0.1-2.3,0.2-3.2,0.2l-0.3,0l-0.2-0.2c-0.7-0.7-0.6-3.2-0.3-3.8c0.2-0.6,0.7-0.6,0.8-0.6c1.5,0,3.7-0.5,4.7-1.4
				c0.4-0.4,0.5-0.6,0.5-0.9c-0.1-0.7-3.2-8.2-5.1-12.8c0,0-0.1-0.1-0.1-0.1c-2.4-0.1-4.7-0.1-6.6-0.1l-1.6,0c-3.6,0-6,0-9,0.1
				c0,0.1-2.1,4.9-3.1,7.3c-0.9,2.3-1.8,5.2-1.9,5.7c0,1.3,4.8,2.2,6,2.2h0.3l0.2,0.3c0.8,0.9,0.6,3.5,0.1,4.1L386,284.1z
				 M415,281.9c2.5,0,5.1,0.2,7.6,0.4c1.2,0.1,2.4,0.2,3.6,0.3c0-0.4,0-1.2-0.2-1.7c-1.5-0.1-5.6-0.7-7-4.2c-0.4-0.9-0.7-1.7-1-2.7
				c-0.4-1-0.8-2.2-1.4-3.6l-17.8-44c-0.1-0.1-0.7-0.3-1.2-0.3c-0.5,0-2,1.7-2.6,2.9l-18.5,42.6c-1.1,2.5-1.6,3.7-3.1,6.2
				c-0.9,1.5-4.5,2.8-6.1,3.1c-0.1,0.6,0,1.3,0,1.7l0.5-0.1c2.5-0.3,4.9-0.6,8.5-0.6c3.5,0,5.9,0.3,8.5,0.6l0.4,0
				c0.1-0.5,0.1-1.3,0-1.7c-1.6-0.2-7-0.9-7-3.6c0-0.9,1.3-4.5,2-6.2c1-2.4,3.1-7.3,3.1-7.3c0.2-0.4,0.7-0.9,1.3-0.9
				c3-0.1,5.4-0.1,9-0.1l1.6,0c1.9,0,4.2,0,6.8,0.1c0,0,0,0,0,0c0.5,0,0.9,0.4,1.1,0.6l0.2,0.2c2.4,5.7,5.3,12.7,5.3,13.5
				c0,1-0.6,1.7-1,2c-1.3,1.1-3.7,1.6-5.2,1.7c-0.1,0.5,0,1.3,0,1.7c0.8,0,1.7-0.1,2.7-0.2C408.2,282.2,412.1,281.9,415,281.9z
				 M393.3,260c-1.9,0-5.5-0.1-7.3-0.3c0,0,0,0,0,0c-0.4,0-0.8-0.5-0.8-1.1l0.1-0.3l8.1-18.6l8,18.8l0,0.2c-0.1,0.6-0.5,1-1,1
				C397.6,260,395.9,260,393.3,260z M386.8,258.3c1.9,0.1,4.8,0.2,6.5,0.2c2.5,0,4,0,6.3-0.1l-6.3-14.9L386.8,258.3z M400.2,258.3
				C400.2,258.3,400.1,258.3,400.2,258.3C400.1,258.3,400.2,258.3,400.2,258.3C400.2,258.3,400.2,258.3,400.2,258.3z M386.1,258.2
				c0,0,0.1,0,0.1,0C386.1,258.3,386.1,258.2,386.1,258.2z"/>
		</g>
		<g>
			<path class="st0" d="M437.4,225.4c0.3,0.5,0.4,2.6,0,3.2c-1.1,0.1-5.3,0.2-5.3,2.3c0,1.4,1,4.1,2.1,6.5c5,11.6,13,29.3,13,29.3
				s10.6-26.7,11.5-29.1c0.8-2.3,1.9-5.1,1.9-7c0-1.6-5.8-2-7-2.1c-0.4-0.6-0.3-2.7,0-3.2c4.1,0.3,6.4,0.6,10.4,0.6
				c3.8,0,6.2-0.4,9.7-0.6c0.3,0.5,0.4,2.6,0,3.2c-1.1,0.1-5,0.2-6.1,1.6c-1.3,1.7-2.3,4.3-3.6,7.2c-7.1,17.5-11.3,26.9-18,43
				c-0.7,1.6-3.1,3.6-4.2,3.6c-0.8,0-0.8-0.6-1.2-1.2l-19-44.1c-1-2.5-2.3-5.4-3-7.1c-1-2.3-4.8-2.8-5.9-2.9c-0.4-0.6-0.3-2.7,0-3.2
				c3.4,0.3,8.8,0.6,12.4,0.6C428.8,226,434,225.7,437.4,225.4z"/>
			<path class="st0" d="M441.8,284.7c-1,0-1.3-0.7-1.6-1.1c-0.1-0.1-0.1-0.3-0.2-0.4L440,283l-19-44.1c-0.9-2.2-2.2-5.2-3-7.1
				c-0.8-1.7-3.7-2.3-5.3-2.4l-0.3,0l-0.2-0.3c-0.6-0.8-0.5-3.3,0-4l0.2-0.4l0.4,0c3.4,0.3,8.7,0.6,12.4,0.6c3.6,0,8.8-0.3,12.2-0.6
				l0.4,0l0.2,0.4c0.5,0.8,0.6,3.2,0,4l-0.2,0.3l-0.7,0c-2.9,0.2-4.3,0.7-4.3,1.6c0,1.5,1.5,5.1,2,6.2c4.1,9.4,10.2,23.1,12.3,27.7
				c2.3-5.8,10.1-25.5,10.8-27.5l0.4-1c0.7-2,1.5-4.2,1.5-5.7c0,0,0,0,0,0c0,0-0.6-0.9-6.2-1.4l-0.3,0L453,229c-0.6-0.8-0.5-3.3,0-4
				l0.2-0.4l2.2,0.2c3,0.3,5.2,0.5,8.5,0.5c2.3,0,4-0.2,5.9-0.3c1.2-0.1,2.4-0.2,3.9-0.3l0.4,0l0.2,0.3c0.5,0.8,0.6,3.2,0,4
				l-0.2,0.3l-0.8,0.1c-1.1,0.1-4.4,0.3-5.1,1.2c-1.1,1.5-2.1,3.7-3.1,6.3l-0.3,0.8c-4.3,10.5-7.4,17.9-10.8,25.9
				c-2.2,5.3-4.5,10.6-7.2,17.1C445.9,282.3,443.3,284.7,441.8,284.7z M441.3,282.4c0.1,0.2,0.2,0.4,0.3,0.5
				c0.1,0.1,0.1,0.3,0.2,0.3c0,0,0,0,0,0c0.7,0,3-1.7,3.6-3.1c2.7-6.5,5-11.8,7.2-17.1c3.4-7.9,6.5-15.4,10.8-25.8l0.3-0.8
				c1.1-2.6,2.1-4.9,3.3-6.6c1-1.3,3.6-1.7,6.2-1.8c0.1-0.5,0.1-1.3,0-1.8c-1.2,0.1-2.2,0.2-3.2,0.3c-1.9,0.2-3.6,0.3-6,0.3
				c-3.4,0-5.6-0.2-8.7-0.5l-1.2-0.1c-0.1,0.5-0.1,1.3,0,1.8c6.4,0.5,7.2,1.8,7.2,2.8c0,1.7-0.8,4.1-1.6,6.2l-0.4,1
				c-0.9,2.4-11.1,28.1-11.5,29.2l-0.6,1.6l-0.7-1.6c-0.1-0.2-8-17.9-13-29.3c-1.5-3.5-2.1-5.6-2.1-6.8c0-2.6,3.8-2.9,5.5-3
				c0.1-0.4,0.1-1.2,0-1.7c-3.4,0.3-8.3,0.6-11.8,0.6c-3.5,0-8.5-0.2-11.9-0.6c-0.1,0.5-0.1,1.3,0,1.8c1.4,0.2,5,0.8,6.1,3.2
				c0.9,1.9,2.1,4.9,3.1,7.2L441.3,282.4z"/>
		</g>
		<g>
			<path class="st0" d="M520.9,225.2c0.6,4.3,1.7,9,2.5,12.9c-0.3,0.3-1.4,0.4-2,0.4c-0.6,0-1.2-0.3-1.4-0.7
				c-1.8-4.8-4.1-8.8-9.4-8.8h-7.2c-2,0-3.9,0.1-4.4,1c-0.4,1-0.4,2.8-0.4,5.3V251c0,0.5,1.8,1,3.7,1h4.6c5.1,0,6.3-1,7.7-6.1
				c0.1-0.4,0.4-0.7,1-0.7c0.6,0,1.4,0.2,1.7,0.4v16.7c-0.2,0.2-1,0.3-1.6,0.3c-0.6,0-1.1-0.3-1.2-0.7c-1-4.2-2.3-5-3-5.3
				c-1-0.4-3.3-0.6-6.6-0.6c-2.4,0-6.3,0.2-6.3,1.2v13.5c0,0.5,0,5.1,0.7,6.9c0.5,1.2,3.4,1.7,5.7,1.7h5.7c3.3,0,6.1-0.9,8.1-2.9
				c1.8-1.8,3.2-4.3,4.7-8.3c0.1-0.3,0.6-0.5,1.2-0.5c0.9,0,2.3,0.3,2.6,0.5c-1.7,4.7-4.1,11.1-4.7,15c-3.7,0-39.1,0-42.4,0.1
				c-0.3-0.5-0.4-2.6,0-3.2c1.1-0.1,5.1-0.3,5.6-1.5c0.7-1.7,0.7-4.4,0.7-8.2v-32c0-3.7,0-6.4-0.7-8.2c-0.4-1.1-4.4-1.3-5.6-1.4
				c-0.4-0.6-0.3-2.7,0-3.2c3.9,0.3,8.8,0.3,12.4,0.3C496.3,225.8,515.8,225.3,520.9,225.2z M507.3,207.7c0.3-0.2,0.9-0.3,1.6-0.3
				c1.6,0,4.9,0.9,4.9,3.3c0,3.2-14.4,9-15.7,9c-0.6,0-1.2-1.2-1.2-1.7C496.8,217.3,503.3,210.8,507.3,207.7z"/>
			<path class="st0" d="M479.8,284l-0.2-0.3c-0.5-0.8-0.6-3.2,0-4l0.2-0.3l0.3,0c4.3-0.3,4.9-0.9,4.9-1c0.6-1.6,0.6-4.2,0.6-7.9v-32
				c0-3.7,0-6.3-0.6-7.9c-0.1-0.2-0.8-0.7-4.6-0.9l-0.7-0.1l-0.2-0.3c-0.6-0.8-0.5-3.3,0-4l0.2-0.4l0.4,0c3.9,0.3,8.8,0.3,12.4,0.3
				c2.2,0,10.3-0.2,17.5-0.4c4.6-0.1,8.8-0.2,10.8-0.2l0.6,0l0.1,0.6c0.4,3,1.1,6.1,1.7,9.2c0.3,1.3,0.5,2.5,0.8,3.7l0.1,0.4
				l-0.3,0.3c-0.6,0.6-2.5,0.6-2.5,0.6c-0.8,0-1.8-0.4-2.1-1.2c-2-5.1-4.1-8.3-8.7-8.3h-7.2c-0.8,0-3.4,0-3.7,0.6
				c-0.4,0.9-0.4,2.6-0.4,5v15.3c0.4,0.2,1.5,0.5,3,0.5h4.6c4.7,0,5.6-0.7,7-5.6c0.1-0.8,0.8-1.2,1.7-1.2c0.5,0,1.7,0.1,2.2,0.6
				l0.2,0.2v17.3l-0.2,0.2c-0.5,0.5-1.7,0.6-2.1,0.6c-1,0-1.8-0.5-1.9-1.3c-1-4.1-2.1-4.6-2.6-4.8c-0.9-0.4-3-0.5-6.3-0.5
				c-3.7,0-5.2,0.4-5.5,0.6v13.4c0,2.4,0.2,5.4,0.6,6.6c0.3,0.6,2.3,1.3,5,1.3h5.7c3.3,0,5.8-0.9,7.6-2.7c1.7-1.7,3.1-4.1,4.5-8
				c0.1-0.6,0.9-1,1.9-1c0.4,0,2.5,0.1,3.1,0.7l0.3,0.3l-1,2.7c-1.6,4.4-3.4,9.4-3.9,12.6l-0.1,0.6h-0.6c-6.5,0-39.2,0-42.4,0.1
				L479.8,284z M480.7,280.7c-0.1,0.5-0.1,1.3,0,1.8c5-0.1,31.9-0.1,41.3-0.1c0.6-3.3,2.3-8,3.8-12.2l0.6-1.6
				c-0.7-0.1-2-0.2-2.2-0.1c-1.6,4.1-3,6.6-4.8,8.5c-2,2-4.9,3.1-8.6,3.1H505c-0.6,0-5.4-0.1-6.3-2.2c-0.7-1.7-0.8-5.6-0.8-7.2
				v-13.5c0-1,0.8-1.9,7-1.9c3.7,0,5.8,0.2,6.9,0.7c1.1,0.5,2.4,1.6,3.5,5.8c0,0,0.2,0.1,0.5,0.1c0.3,0,0.6,0,0.8-0.1V246
				c-0.2-0.1-0.6-0.1-0.9-0.1c-0.3,0-0.3,0.1-0.3,0.1c-1.5,5.5-3,6.7-8.4,6.7h-4.6c-0.7,0-4.5-0.1-4.5-1.7v-15.6
				c0-2.7,0-4.4,0.5-5.6c0.6-1.4,2.7-1.5,5-1.5h7.2c6,0,8.4,4.8,10.1,9.3c0,0.1,0.3,0.2,0.7,0.2c0.4,0,0.8-0.1,1.2-0.1
				c-0.2-1-0.4-2-0.6-3.1c-0.6-2.8-1.2-5.8-1.7-8.6c-2.2,0-6,0.1-10.1,0.2c-7.2,0.2-15.3,0.4-17.5,0.4c-3.4,0-8.1,0-11.9-0.2
				c-0.1,0.5-0.1,1.3,0,1.8c3.2,0.2,5.3,0.6,5.7,1.8c0.7,1.9,0.7,4.6,0.7,8.4v32c0,3.8,0,6.6-0.7,8.4
				C486.1,279.9,484.4,280.4,480.7,280.7z M524.2,268.4C524.2,268.4,524.2,268.4,524.2,268.4C524.2,268.4,524.2,268.4,524.2,268.4z
				 M498,220.4c-1.2,0-1.9-1.7-1.9-2.5c0-1.3,8-8.7,10.7-10.8l0.1-0.1c0.6-0.3,1.2-0.4,1.9-0.4c1.8,0,5.6,1,5.6,4
				C514.4,214.7,499,220.4,498,220.4z M497.6,218c0.1,0.3,0.4,0.8,0.5,0.9c1.8-0.2,14.9-5.9,14.9-8.2c0-1.8-2.7-2.6-4.1-2.6
				c-0.5,0-0.9,0.1-1.2,0.2C503.8,211.3,498.3,216.9,497.6,218z"/>
		</g>
		<g>
			<path class="st0" d="M593.6,225.2c0.6,4.3,1.7,9,2.5,12.9c-0.3,0.3-1.4,0.4-2,0.4c-0.6,0-1.2-0.3-1.4-0.7
				c-1.8-4.8-4.1-8.8-9.4-8.8h-7.2c-2,0-3.9,0.1-4.3,1c-0.4,1-0.4,2.8-0.4,5.3v15.9c0,0.5,1.8,1,3.7,1h4.6c5.1,0,6.3-1,7.7-6.1
				c0.1-0.4,0.4-0.7,1-0.7c0.6,0,1.4,0.2,1.7,0.4v16.7c-0.2,0.2-1,0.3-1.6,0.3c-0.6,0-1.1-0.3-1.2-0.7c-1-4.2-2.3-5-3-5.3
				c-1-0.4-3.3-0.6-6.6-0.6c-2.4,0-6.3,0.2-6.3,1.2v12.8c0,3.7,0,6.4,0.7,8.2c0.4,1.1,5.2,1.5,6.4,1.6c0.4,0.6,0.3,2.7,0,3.2
				c-3.4-0.3-9.6-0.6-13.2-0.6s-8.9,0.3-12.3,0.6c-0.3-0.5-0.4-2.6,0-3.2c1.1-0.1,5.1-0.4,5.6-1.6c0.7-1.7,0.7-4.4,0.7-8.2v-32
				c0-3.7,0-6.4-0.7-8.2c-0.4-1.1-4.4-1.3-5.6-1.4c-0.4-0.6-0.3-2.7,0-3.2c3.9,0.3,8.8,0.3,12.4,0.3
				C569,225.8,588.5,225.3,593.6,225.2z"/>
			<path class="st0" d="M578.7,284.1l-0.4,0c-3.5-0.4-9.7-0.6-13.1-0.6c-3.6,0-8.8,0.3-12.2,0.6l-0.4,0l-0.2-0.4
				c-0.5-0.8-0.6-3.2,0-4l0.2-0.3l0.3,0c3.7-0.3,4.8-0.9,4.9-1.1c0.6-1.6,0.6-4.2,0.6-7.9v-32c0-3.7,0-6.3-0.6-7.9
				c-0.1-0.2-0.8-0.6-4.6-0.9l-0.7-0.1l-0.2-0.3c-0.6-0.8-0.5-3.3,0-4l0.2-0.4l0.4,0c3.9,0.3,8.8,0.3,12.4,0.3
				c2.2,0,10.3-0.2,17.5-0.4c4.6-0.1,8.8-0.2,10.8-0.2l0.6,0l0.1,0.6c0.4,3,1.1,6.1,1.7,9.1c0.3,1.3,0.5,2.5,0.8,3.7l0.1,0.4
				l-0.3,0.3c-0.6,0.6-2.5,0.6-2.5,0.6c-0.8,0-1.8-0.4-2.1-1.2c-2-5.1-4.1-8.3-8.7-8.3h-7.2c-0.8,0-3.4,0-3.7,0.6
				c-0.4,0.9-0.4,2.6-0.4,5v15.7c0.4,0.2,1.5,0.5,3,0.5h4.6c4.7,0,5.6-0.7,7-5.6c0.1-0.8,0.8-1.2,1.7-1.2c0.5,0,1.7,0.1,2.2,0.6
				l0.2,0.2v17.3l-0.2,0.2c-0.5,0.5-1.7,0.6-2.1,0.6c-1,0-1.8-0.5-1.9-1.3c-1-4.1-2.1-4.6-2.6-4.8c-0.9-0.4-3-0.5-6.3-0.5
				c-3.7,0-5.2,0.4-5.5,0.6v12.7c0,3.7,0,6.3,0.6,7.9c0,0.1,0.7,0.7,5.7,1.1l0.3,0l0.3,0.3c0.6,0.8,0.5,3.3,0,4L578.7,284.1z
				 M565.1,282c3.4,0,9.1,0.2,12.7,0.6c0.1-0.5,0.1-1.3,0-1.7c-5.2-0.4-6.2-1.3-6.5-2c-0.7-1.9-0.7-4.6-0.7-8.4v-12.8
				c0-1,0.8-1.9,7-1.9c3.7,0,5.8,0.2,6.9,0.7c1.1,0.5,2.4,1.6,3.5,5.8c0,0,0.2,0.1,0.5,0.1c0.3,0,0.6,0,0.8-0.1v-15.8
				c-0.2-0.1-0.6-0.1-0.9-0.1c-0.3,0-0.3,0.1-0.3,0.1c-1.5,5.5-3,6.7-8.4,6.7h-4.6c-0.7,0-4.5-0.1-4.5-1.7v-15.9
				c0-2.7,0-4.4,0.5-5.6c0.6-1.4,2.7-1.5,5-1.5h7.2c6,0,8.4,4.8,10.1,9.3c0,0.1,0.3,0.2,0.7,0.2c0.4,0,0.8-0.1,1.2-0.1
				c-0.2-1-0.4-2-0.7-3.1c-0.6-2.8-1.2-5.7-1.7-8.6c-2.2,0-6,0.1-10.1,0.2c-7.2,0.2-15.3,0.4-17.5,0.4c-3.4,0-8.1,0-11.9-0.2
				c-0.1,0.5-0.1,1.3,0,1.8c3.2,0.2,5.3,0.6,5.7,1.8c0.7,1.9,0.7,4.6,0.7,8.4v32c0,3.8,0,6.6-0.7,8.4c-0.2,0.4-0.6,1.5-5.7,2
				c-0.1,0.4-0.1,1.2,0,1.7C556.8,282.2,561.7,282,565.1,282z"/>
		</g>
		<g>
			<path class="st0" d="M646.4,241.4c0,7.1-7.7,13-11.8,14.1c6.3,8.5,12.6,16.2,12.6,16.2c6.4,8.2,13.7,8.4,14.4,8.4
				c0.4,0.6,0.1,3,0,3.2c-2.5,0.2-7.8,0.3-11.4,0.3c-6.7,0-11.1-3.6-13.3-6.5l-14.1-18.9c0,0-0.9-1.3-1.6-1.3H620v13.4
				c0,3.7,0,6.4,0.7,8.2c0.4,1.1,4.4,1.5,5.6,1.6c0.4,0.6,0.3,2.7,0,3.2c-3.4-0.3-8.8-0.6-12.4-0.6c-3.7,0-8.9,0.3-12.3,0.6
				c-0.3-0.5-0.4-2.6,0-3.2c1.1-0.1,5.1-0.4,5.6-1.6c0.7-1.7,0.7-4.4,0.7-8.2v-32c0-3.7,0-6.4-0.7-8.2c-0.4-1.1-4.4-1.3-5.6-1.4
				c-0.4-0.6-0.3-2.7,0-3.2c3.9,0.3,8.8,0.3,12.4,0.3c3.7,0,8.3-0.3,13.4-0.3C638.2,225.6,646.4,231,646.4,241.4z M624.7,229.1
				c-2,0-3.9,0.1-4.3,1c-0.4,1-0.4,2.8-0.4,5.3v18.2h4c5,0,9.5-4.6,9.5-11.3C633.4,235.4,631.9,229.1,624.7,229.1z"/>
			<path class="st0" d="M650.2,284.4c-8,0-12.4-4.8-13.9-6.8l-14.1-18.9c-0.3-0.5-0.8-1-1-1l-0.6,0v12.7c0,3.7,0,6.3,0.6,7.9
				c0.1,0.2,1.3,0.8,4.9,1.1l0.3,0l0.2,0.3c0.6,0.8,0.5,3.3,0,4l-0.2,0.4l-0.4,0c-3.4-0.3-8.7-0.6-12.4-0.6c-3.6,0-8.8,0.3-12.2,0.6
				l-0.4,0l-0.2-0.4c-0.5-0.8-0.6-3.2,0-4l0.2-0.3l0.3,0c3.7-0.3,4.8-0.9,4.9-1.1c0.6-1.6,0.6-4.2,0.6-7.9v-32c0-3.7,0-6.3-0.6-7.9
				c-0.1-0.2-0.8-0.6-4.6-0.9l-0.7-0.1l-0.2-0.3c-0.6-0.8-0.5-3.3,0-4l0.2-0.4l0.4,0c3.9,0.3,8.8,0.3,12.4,0.3
				c1.7,0,3.5-0.1,5.6-0.1c2.4-0.1,5-0.1,7.8-0.1c12.2,0,19.8,6.3,19.8,16.6c0,7.1-6.9,12.8-11.4,14.5c6.1,8.1,11.9,15.3,12,15.3
				c6.4,8.1,13.6,8.2,13.9,8.2h0.4l0.2,0.3c0.7,1,0.2,3.7,0.1,4l-0.2,0.4l-0.4,0C659.3,284.2,654,284.4,650.2,284.4z M619.2,256.2h2
				c1,0,1.9,1.2,2.2,1.6l14.1,18.8c1.4,1.9,5.4,6.2,12.7,6.2c3.5,0,8.2-0.2,10.8-0.3c0.1-0.5,0.1-1.3,0.1-1.8
				c-2-0.1-8.6-1.2-14.5-8.7c-0.1-0.1-6.3-7.8-12.6-16.2l-0.7-0.9l1.1-0.3c3.8-1,11.3-6.5,11.3-13.4c0-9.3-7-15.1-18.3-15.1
				c-2.8,0-5.4,0.1-7.8,0.1c-2,0.1-3.9,0.1-5.6,0.1c-3.4,0-8.1,0-11.9-0.2c-0.1,0.5-0.1,1.3,0,1.8c3.2,0.2,5.3,0.6,5.7,1.8
				c0.7,1.9,0.7,4.6,0.7,8.4v32c0,3.8,0,6.6-0.7,8.4c-0.2,0.4-0.6,1.5-5.7,2c-0.1,0.4-0.1,1.2,0,1.7c3.4-0.3,8.3-0.6,11.8-0.6
				c3.5,0,8.5,0.2,11.9,0.6c0.1-0.5,0.1-1.3,0-1.7c-5.2-0.5-5.6-1.6-5.7-2c-0.7-1.9-0.7-4.6-0.7-8.4V256.2z M624,254.3h-4.7v-18.9
				c0-2.7,0-4.4,0.5-5.6c0.6-1.4,2.7-1.5,5-1.5c9.4,0,9.4,10.5,9.4,14C634.2,249,629.7,254.3,624,254.3z M620.7,252.9h3.3
				c4.3,0,8.8-4,8.8-10.6c0-8.5-2.5-12.5-8-12.5c-0.8,0-3.4,0-3.7,0.6c-0.4,0.9-0.4,2.6-0.4,5V252.9z"/>
		</g>
		<g>
			<path class="st0" d="M686.1,228.7c0.5-1.1,2.3-3.3,3.2-3.3c0.8,0,1.7,0.3,1.8,0.6l17.8,44.1c1.1,2.7,1.7,4.4,2.4,6.3
				c1.5,3.6,6.2,3.7,6.9,3.7c0.4,0.8,0.5,2.9,0.2,3.2c-3.5-0.2-7.8-0.7-11.7-0.7c-4,0-10,0.5-13.1,0.7c-0.4-0.4-0.4-3.2,0-3.2
				c1.5,0,3.9-0.5,5.1-1.6c0.5-0.4,0.8-0.9,0.8-1.5c0-0.8-5.2-13.2-5.2-13.2s-0.3-0.3-0.6-0.3c-3.3-0.2-6.2-0.1-8.4-0.1
				c-3.6,0-6,0-9,0.1c-0.3,0-0.5,0.3-0.6,0.4c0,0-2.2,4.9-3.1,7.3c-0.9,2.2-1.9,5.3-1.9,5.9c0,2.3,6,3,6.7,3
				c0.5,0.6,0.3,2.9,0.1,3.2c-3-0.3-5.6-0.7-9.4-0.7c-4,0-6.4,0.3-9.5,0.7c-0.3-0.3-0.5-2.2-0.2-3.1c1,0,5.2-1.4,6.1-2.8
				c1.5-2.4,2-3.7,3-6.1L686.1,228.7z M677.6,258.6c0,0,0,0.3,0.2,0.3c1.7,0.2,5.2,0.3,7.2,0.3c2.7,0,4.3,0,7-0.2
				c0.2,0,0.3-0.4,0.3-0.4l-7.2-17L677.6,258.6z"/>
			<path class="st0" d="M677.8,284.1l-1.4-0.2c-2.7-0.3-5-0.6-8.3-0.6c-3.5,0-5.7,0.3-8.3,0.6l-1.4,0.2l-0.2-0.2
				c-0.6-0.6-0.7-2.8-0.3-3.9l0.2-0.5h0.5c0.9,0,4.8-1.4,5.5-2.4c1.4-2.4,2-3.6,3-6l18.5-42.6c0.5-1,2.4-3.7,3.9-3.7
				c0.9,0,2.1,0.4,2.4,0.9l0.1,0.1l17.8,44.1c0.6,1.4,1,2.6,1.4,3.6c0.3,0.9,0.6,1.8,1,2.6c1.3,3.2,5.7,3.3,6.2,3.3h0.4l0.2,0.4
				c0.5,0.8,0.8,3.4,0.1,4.1l-0.2,0.2l-0.3,0c-1.3-0.1-2.7-0.2-4.1-0.3c-2.5-0.2-5.1-0.4-7.5-0.4c-2.9,0-6.7,0.3-9.9,0.5
				c-1.2,0.1-2.3,0.2-3.2,0.2l-0.3,0l-0.2-0.2c-0.7-0.7-0.6-3.2-0.3-3.8c0.2-0.6,0.7-0.6,0.8-0.6c1.5,0,3.7-0.5,4.7-1.4
				c0.4-0.4,0.5-0.6,0.5-0.9c-0.1-0.7-3.2-8.2-5.1-12.8c0,0-0.1-0.1-0.1-0.1c-2.4-0.1-4.7-0.1-6.6-0.1l-1.6,0c-3.6,0-6,0-9,0.1
				c0,0.1-2.1,4.9-3.1,7.3c-0.9,2.3-1.8,5.2-1.9,5.7c0,1.3,4.8,2.2,6,2.2h0.3l0.2,0.3c0.8,0.9,0.6,3.5,0.1,4.1L677.8,284.1z
				 M706.8,281.9c2.5,0,5.1,0.2,7.6,0.4c1.2,0.1,2.4,0.2,3.6,0.3c0-0.4,0-1.2-0.2-1.7c-1.5-0.1-5.6-0.7-7-4.2
				c-0.4-0.9-0.7-1.7-1-2.7c-0.4-1-0.8-2.2-1.4-3.6l-17.8-44c-0.1-0.1-0.7-0.3-1.2-0.3c-0.5,0-2,1.7-2.6,2.9l-18.5,42.6
				c-1.1,2.5-1.6,3.7-3.1,6.2c-0.9,1.5-4.5,2.8-6.1,3.1c-0.1,0.6,0,1.3,0,1.7l0.5-0.1c2.5-0.3,4.9-0.6,8.5-0.6
				c3.5,0,5.9,0.3,8.5,0.6l0.4,0c0.1-0.5,0.1-1.3,0-1.7c-1.6-0.2-7-0.9-7-3.6c0-0.9,1.3-4.5,2-6.2c1-2.4,3.1-7.3,3.1-7.3
				c0.2-0.4,0.7-0.9,1.3-0.9c3-0.1,5.4-0.1,9-0.1l1.6,0c1.9,0,4.2,0,6.8,0.1h0c0.5,0,0.9,0.4,1.1,0.6l0.2,0.2
				c2.4,5.7,5.3,12.7,5.3,13.5c0,1-0.6,1.7-1,2c-1.3,1.1-3.7,1.6-5.2,1.7c-0.1,0.5,0,1.3,0,1.7c0.8,0,1.7-0.1,2.7-0.2
				C700,282.2,703.9,281.9,706.8,281.9z M685,260c-1.9,0-5.5-0.1-7.3-0.3c0,0,0,0,0,0c-0.4,0-0.8-0.5-0.8-1.1l0.1-0.3l8.1-18.6
				l8,18.8l0,0.2c-0.1,0.6-0.5,1-1,1C689.3,260,687.7,260,685,260z M678.6,258.3c1.9,0.1,4.8,0.2,6.5,0.2c2.5,0,4,0,6.3-0.1
				l-6.3-14.9L678.6,258.3z M692,258.3C691.9,258.3,691.9,258.3,692,258.3C691.9,258.3,691.9,258.3,692,258.3
				C692,258.3,692,258.3,692,258.3z M677.8,258.2c0,0,0.1,0,0.1,0C677.9,258.3,677.9,258.2,677.8,258.2z"/>
		</g>
		<g>
			<path class="st0" d="M743.4,225.4c3.3,6.8,17.2,22.7,27.9,36c0.2-0.6,0.2-2.3,0.2-3.6v-16.3c0-3.3-0.3-9.8-1-11.1
				c-0.7-1.6-6-1.9-7-1.9c-0.2,0-0.4-2.4,0-3.2c4,0.2,6.6,0.7,10.6,0.7c3.8,0,7.5-0.5,11-0.7c0.2,0.5,0.3,2.4-0.2,3.3
				c-0.7,0-6.5,0.2-7.2,2c-0.4,1.2-0.9,7.6-0.9,10.7v29.6c0,5,0.2,7.7,0.3,12.2c-0.3,0.3-1.9,0.3-2.2,0.3c-0.8,0-1.8-0.9-2.7-2
				l-35.4-43.6v31.5c0,3.1,0.5,7.2,1,8.4c0.6,1.7,6.4,2.3,7.1,2.3c0.5,0.9,0.3,2.8,0.2,3.3c-3.5-0.2-7.1-0.7-11-0.7
				c-4,0-6.6,0.5-10.6,0.7c-0.4-0.8-0.2-3.2,0-3.2c1,0,6.3-0.7,7-2.3c0.6-1.3,1-5.5,1-8.8v-30.8c0-2.4-0.4-6.2-1.6-7.8
				c-0.8-1.1-4.7-1.8-5.7-1.8c-0.4,0-0.6-2.8-0.2-3.2c2.7,0.2,5.8,0.6,9.8,0.6C736.9,226,740.6,225.7,743.4,225.4z"/>
			<path class="st0" d="M775,284.1c-1.4,0-2.7-1.6-3.3-2.3l-34.1-42v29.4c0,3,0.5,7,0.9,8.2c0.4,1,5.1,1.8,6.4,1.8h0.4l0.2,0.4
				c0.7,1.2,0.4,3.4,0.2,3.9l-0.2,0.5l-0.6,0c-1.3-0.1-2.7-0.2-4.1-0.3c-2.2-0.2-4.5-0.4-6.8-0.4c-2.3,0-4.1,0.2-6,0.4
				c-1.4,0.1-2.9,0.3-4.6,0.3l-0.5,0l-0.2-0.4c-0.5-0.9-0.3-3.4,0-3.9l0.2-0.4l0.5,0c1.5,0,5.9-0.9,6.3-1.8c0.5-1.1,1-5.1,1-8.5
				v-30.8c0-2.6-0.5-6-1.4-7.4c-0.5-0.7-3.9-1.5-5.1-1.5c-0.2,0-0.6-0.1-0.9-0.7c-0.3-0.7-0.5-3.1,0.2-3.8l0.2-0.2l0.3,0
				c0.8,0.1,1.7,0.1,2.6,0.2c2.1,0.2,4.4,0.4,7.2,0.4c2.8,0,6.4-0.2,9.4-0.6l0.5-0.1l0.2,0.5c2.4,5,10.9,15.3,19.2,25.3
				c2.5,3.1,5.1,6.2,7.5,9.2c0-0.6,0-1.2,0-1.7v-16.3c0-3.9-0.4-9.8-0.9-10.8c-0.4-0.9-4.4-1.5-6.4-1.5h-0.4l-0.2-0.4
				c-0.3-0.5-0.5-3,0-3.9l0.2-0.4l0.5,0c1.7,0.1,3.2,0.2,4.6,0.3c1.9,0.2,3.7,0.4,6,0.4c2.3,0,4.6-0.2,6.8-0.4
				c1.4-0.1,2.8-0.2,4.1-0.3l0.6,0l0.2,0.5c0.2,0.5,0.5,2.8-0.2,3.9l-0.2,0.4h-0.4c-2.5,0-6.2,0.6-6.5,1.5
				c-0.4,1.1-0.8,7.2-0.8,10.4v29.6c0,3.9,0.1,6.3,0.2,9.3l0.1,3.2l-0.2,0.2C777.1,284.1,775,284.1,775,284.1z M736.1,235.8
				l36.7,45.2c0.9,1.1,1.7,1.7,2.1,1.7c0.3,0,1-0.1,1.4-0.1l-0.1-2.3c-0.1-3-0.2-5.5-0.2-9.4v-29.6c0-2.8,0.4-9.5,0.9-10.9
				c0.8-2.1,5.7-2.4,7.4-2.5c0.1-0.5,0.1-1.3,0.1-1.8c-1.1,0.1-2.3,0.2-3.4,0.3c-2.2,0.2-4.6,0.4-7,0.4c-2.3,0-4.2-0.2-6.1-0.4
				c-1.2-0.1-2.5-0.2-3.9-0.3c-0.1,0.5,0,1.3,0,1.7c1.6,0.1,6.3,0.4,7.2,2.3c0.7,1.6,1,8.7,1,11.4v16.3c0,1.7,0,3.1-0.2,3.8
				l-0.4,1.4l-0.9-1.1c-2.8-3.4-5.7-7-8.7-10.6c-8.4-10.2-16.4-19.9-19.1-25.1c-2.9,0.3-6.4,0.6-9.1,0.6c-2.8,0-5.2-0.2-7.3-0.4
				c-0.7-0.1-1.4-0.1-2-0.2c0,0.4,0,1.3,0.1,1.7c1.3,0.1,5,0.8,5.9,2.1c1.3,2,1.7,6.1,1.7,8.2v30.8c0,3.2-0.4,7.6-1.1,9.1
				c-0.8,1.9-5.5,2.5-7.1,2.6c-0.1,0.5-0.1,1.3,0,1.8c1.4-0.1,2.7-0.2,3.9-0.3c2-0.2,3.8-0.4,6.1-0.4c2.4,0,4.7,0.2,7,0.4
				c1.2,0.1,2.3,0.2,3.4,0.3c0.1-0.6,0.1-1.3-0.1-1.8c-1.6-0.1-6.6-0.7-7.3-2.7c-0.5-1.4-1-5.7-1-8.7V235.8z M724.2,227.9
				L724.2,227.9L724.2,227.9z"/>
		</g>
		<g>
			<path class="st0" d="M835.9,226.6c0.2,1,3,12.1,3,13.1c0,0.5-1.2,1.3-2.3,1.3c-0.4,0-0.9,0-1.2-0.3c-0.9-3.4-4.5-12-16.8-12
				c-12.3,0-17,11.5-17,23.7c0,13.6,5.6,27.4,18.7,27.4c5.2,0,8.4-1.6,10.8-3.7c3.7-3.3,5.9-10.1,6.1-10.8c1.3,0,2.3,0.4,3,1
				c0,1-2.3,12.7-3.6,13.2c-5.5,2-11,4.1-19,4.1c-16.4,0-29.9-12.2-29.9-28.6c0-16.8,13.6-30,30.1-30
				C823.5,225,830.7,225.6,835.9,226.6z"/>
			<path class="st0" d="M817.6,284.3c-17.2,0-30.7-12.9-30.7-29.3c0-16.9,13.8-30.7,30.8-30.7c6.1,0,13.3,0.7,18.2,1.7l0.5,0.1
				l0.1,0.5c0.1,0.3,0.4,1.6,0.8,3.3c1.4,6.1,2.2,9.3,2.2,9.9c0,1.1-1.7,2-3,2c-0.5,0-1.2,0-1.7-0.6l-0.1-0.1l0-0.2
				c-0.7-2.7-3.9-11.5-16.1-11.5c-15.1,0-16.2,17.6-16.2,22.9c0,12.3,4.7,26.7,18,26.7c4.4,0,7.7-1.1,10.3-3.5
				c3.4-3.1,5.7-9.6,5.9-10.4l0.1-0.6h0.6c1.4,0,2.6,0.4,3.5,1.2l0.2,0.2v0.3c0,0.1-2,13.1-4,13.9l-0.3,0.1
				C831.2,282.3,825.6,284.3,817.6,284.3z M817.8,225.7c-16.2,0-29.4,13.1-29.4,29.3c0,15.6,12.8,27.9,29.2,27.9
				c7.7,0,13.2-2,18.5-3.9l0.3-0.1c0.8-0.8,2.8-10,3.1-12.2c-0.5-0.3-1.1-0.5-1.8-0.6c-0.6,1.8-2.7,7.5-6.1,10.6
				c-2.9,2.7-6.5,3.9-11.3,3.9c-13.4,0-19.4-14.1-19.4-28.1c0-15.3,6.6-24.4,17.7-24.4c12.9,0,16.5,9.1,17.4,12.3
				c0.1,0,0.3,0.1,0.6,0.1c0.7,0,1.4-0.5,1.6-0.7c0-0.6-1.4-6.4-2.2-9.5c-0.3-1.3-0.6-2.3-0.7-2.9
				C830.4,226.3,823.6,225.7,817.8,225.7z"/>
		</g>
		<g>
			<path class="st0" d="M887.7,225.2c0.6,4.3,1.7,9,2.5,12.9c-0.3,0.3-1.4,0.4-2,0.4c-0.6,0-1.2-0.3-1.4-0.7
				c-1.8-4.8-4.1-8.8-9.4-8.8h-7.2c-2,0-3.9,0.1-4.3,1c-0.4,1-0.4,2.8-0.4,5.3V251c0,0.5,1.8,1,3.7,1h4.6c5.1,0,6.3-1,7.7-6.1
				c0.1-0.4,0.4-0.7,1-0.7c0.6,0,1.4,0.2,1.7,0.4v16.7c-0.2,0.2-1,0.3-1.6,0.3c-0.6,0-1.1-0.3-1.2-0.7c-1-4.2-2.3-5-3-5.3
				c-1-0.4-3.3-0.6-6.6-0.6c-2.4,0-6.3,0.2-6.3,1.2v13.5c0,0.5,0,5.1,0.7,6.9c0.5,1.2,3.4,1.7,5.7,1.7h5.7c3.3,0,6.1-0.9,8.1-2.9
				c1.8-1.8,3.2-4.3,4.7-8.3c0.1-0.3,0.6-0.5,1.2-0.5c0.9,0,2.3,0.3,2.6,0.5c-1.7,4.7-4.1,11.1-4.7,15c-3.7,0-39.1,0-42.4,0.1
				c-0.3-0.5-0.4-2.6,0-3.2c1.1-0.1,5.1-0.3,5.6-1.5c0.7-1.7,0.7-4.4,0.7-8.2v-32c0-3.7,0-6.4-0.7-8.2c-0.4-1.1-4.4-1.3-5.6-1.4
				c-0.4-0.6-0.3-2.7,0-3.2c3.9,0.3,8.8,0.3,12.4,0.3C863.1,225.8,882.6,225.3,887.7,225.2z"/>
			<path class="st0" d="M846.6,284l-0.2-0.3c-0.5-0.8-0.6-3.2,0-4l0.2-0.3l0.3,0c4.3-0.3,4.9-0.9,4.9-1c0.6-1.6,0.6-4.2,0.6-7.9v-32
				c0-3.7,0-6.3-0.6-7.9c-0.1-0.2-0.8-0.6-4.6-0.9l-0.7-0.1l-0.2-0.3c-0.6-0.8-0.5-3.3,0-4l0.2-0.4l0.4,0c3.9,0.3,8.8,0.3,12.4,0.3
				c2.2,0,10.3-0.2,17.5-0.4c4.6-0.1,8.8-0.2,10.8-0.2l0.6,0l0.1,0.6c0.4,3,1.1,6.1,1.7,9.1c0.3,1.3,0.5,2.5,0.8,3.7l0.1,0.4
				l-0.3,0.3c-0.6,0.6-2.5,0.6-2.5,0.6c-0.8,0-1.8-0.4-2.1-1.2c-2-5.1-4.1-8.3-8.7-8.3h-7.2c-0.8,0-3.4,0-3.7,0.6
				c-0.4,0.9-0.4,2.6-0.4,5v15.3c0.4,0.2,1.5,0.5,3,0.5h4.6c4.7,0,5.6-0.7,7-5.6c0.1-0.8,0.8-1.2,1.7-1.2c0.5,0,1.7,0.1,2.2,0.6
				l0.2,0.2v17.3l-0.2,0.2c-0.5,0.5-1.7,0.6-2.1,0.6c-1,0-1.8-0.5-1.9-1.3c-1-4.1-2.1-4.6-2.6-4.8c-0.9-0.4-3-0.5-6.3-0.5
				c-3.7,0-5.2,0.4-5.5,0.6v13.4c0,2.4,0.2,5.4,0.6,6.6c0.3,0.6,2.3,1.3,5,1.3h5.7c3.3,0,5.8-0.9,7.6-2.7c1.7-1.7,3.1-4.1,4.5-8
				c0.1-0.6,0.9-1,1.9-1c0.4,0,2.5,0.1,3.1,0.7l0.3,0.3l-1,2.7c-1.5,4.2-3.4,9.4-3.9,12.6l-0.1,0.6h-0.6c-6.5,0-39.2,0-42.4,0.1
				L846.6,284z M847.5,280.7c-0.1,0.5-0.1,1.3,0,1.8c5-0.1,31.9-0.1,41.3-0.1c0.6-3.3,2.3-8,3.8-12.2l0.6-1.6
				c-0.7-0.1-2-0.2-2.2-0.1c-1.6,4.1-3,6.7-4.8,8.5c-2,2-4.9,3.1-8.6,3.1h-5.7c-0.6,0-5.4-0.1-6.3-2.2c-0.7-1.7-0.8-5.6-0.8-7.2
				v-13.5c0-1,0.8-1.9,7-1.9c3.7,0,5.8,0.2,6.9,0.7c1.1,0.5,2.4,1.6,3.5,5.8c0,0,0.2,0.1,0.5,0.1c0.3,0,0.6,0,0.8-0.1V246
				c-0.2-0.1-0.6-0.1-0.9-0.1c-0.3,0-0.3,0.1-0.3,0.1c-1.5,5.5-3,6.7-8.4,6.7h-4.6c-0.7,0-4.5-0.1-4.5-1.7v-15.6
				c0-2.7,0-4.4,0.5-5.6c0.6-1.4,2.7-1.5,5-1.5h7.2c6,0,8.4,4.8,10.1,9.3c0,0.1,0.3,0.2,0.7,0.2c0.4,0,0.8-0.1,1.2-0.1
				c-0.2-1-0.4-2-0.7-3.1c-0.6-2.8-1.2-5.7-1.7-8.6c-2.2,0-6,0.1-10.1,0.2c-7.2,0.2-15.3,0.4-17.5,0.4c-3.4,0-8.1,0-11.9-0.2
				c-0.1,0.5-0.1,1.3,0,1.8c3.2,0.2,5.3,0.6,5.7,1.8c0.7,1.9,0.7,4.6,0.7,8.4v32c0,3.8,0,6.6-0.7,8.4
				C852.9,279.9,851.2,280.4,847.5,280.7z M891,268.4C891,268.4,891,268.4,891,268.4C891,268.4,891,268.4,891,268.4z"/>
		</g>
	</g>
	<g>
		<g>
			<path class="st1" d="M377.1,326.4c2.1,6.1,5.3,11.2,9.8,15c4.5-3.8,7.7-8.8,9.7-15.4l4,1.2c-0.1,0.3-0.5,0.5-1.1,0.5
				c-2.3,6.6-5.6,11.8-10.1,15.7c4.9,3.3,11,5.7,18.5,6.8c-0.6,0.7-1.5,2.1-1.9,3c-7.8-1.4-14.2-3.9-19.2-7.7
				c-5.1,3.7-11.6,6.1-19.4,7.8c-0.3-0.7-1.1-2.1-1.7-2.8c7.5-1.5,13.6-3.8,18.6-7.1c-4.5-4.2-7.8-9.6-10.2-16.2L377.1,326.4z
				 M376.9,324.6v-5.1h-10.5v-3h10.5v-6.3l4,0.2c0,0.3-0.3,0.6-0.9,0.6v5.4h13.5v-6.3l4,0.2c0,0.4-0.3,0.6-0.9,0.6v5.4h10.7v3h-10.7
				v5.1h-3.1v-5.1H380v5.1H376.9z"/>
		</g>
		<g>
			<path class="st1" d="M446.6,330.5h-16.1v8.8c0,4.7-1.3,9.1-4,13.1l-3.3-2.1c2.4-3.5,3.7-6.9,3.7-10.2v-18.6h19.8V330.5z
				 M463.5,317.9H454v3.5h-3.5v-3.5h-13.2v2.8h-3.5v-2.8h-9.6v-3.4h9.6v-3.9h3.5v3.9h13.2v-3.9h3.5v3.9h9.5V317.9z M447.6,340.4
				h-6.1v7.3c0,2.9-1.4,4.4-4.3,4.4l-2.6,0l-1.4-3.2l-1.2,1.1l-3.2-1.8c2.8-2.5,4.6-4.9,5.3-7.4l2.9,1.5c-0.6,2.3-1.8,4.5-3.7,6.4
				l2.1,0.1c1.7,0.1,2.5-0.3,2.5-1.2v-7.3h-6.7V337h16.3V340.4z M443.1,327.1v-2.3h-12.6v2.3H443.1z M446.3,335.3h-14v-3.4h14V335.3
				z M450.6,348l-2.9,2.1c-1.6-3.1-3.5-5.4-5.8-7.1l2.5-1.8C446.4,342.3,448.5,344.6,450.6,348z M454.8,340.6l-3.3,1.5
				c-0.8-4.1-2.2-7.2-4.2-9.3l3.1-1.4C452.5,334,454,337.1,454.8,340.6z M464.8,329.8H460v18.1c0,1.5-0.5,2.6-1.6,3.4
				c-1.1,0.8-3.1,1.1-6,0.9l-1.4-3.4l3.3,0.2c1.4,0,2.1-0.5,2.1-1.6v-17.6h-8.8v-3.4h8.8v-6.2h3.5v6.2h4.8V329.8z"/>
		</g>
		<g>
			<path class="st1" d="M490.1,329.3l-2.4,2.5c-1.7-2.8-4.4-4.9-8.3-6.3l2.4-2.3C485.7,324.6,488.5,326.7,490.1,329.3z M492.2,336.7
				c-1.4,5.8-4.3,10.9-8.6,15.4l-3.1-2.1c4.5-4.7,7.4-9.5,8.8-14.6L492.2,336.7z M493,319.2l-2.5,2.5c-1.7-2.7-4.3-4.8-8-6.4
				l2.2-2.4C488.2,314.3,491,316.3,493,319.2z M520.3,350.1L517,352c-0.8-2.1-1.6-3.6-2.3-4.4l-21.9,2l-1.6-3.7l5.3-0.2
				c1.8-3.6,3.4-7.6,5-12.2h-10.3v-3.4h12.2v-7.8h-9.6v-3.4h9.6v-7.6h3.5v7.6h9.6v3.4h-9.6v7.8h12.2v3.4h-13.9
				c-1.4,4.6-3.1,8.6-5,12l12.5-0.9c-1.7-1.8-3.3-3.2-5-4.2l3-1.8C514.7,341.2,517.8,345,520.3,350.1z"/>
		</g>
		<g>
			<path class="st1" d="M574.6,350.6h-39.4v-3.4h39.4V350.6z M572.8,328.3h-35.9v-3.4h35.9V328.3z M570.2,339.2h-30.6v-3.4h30.6
				V339.2z M552.8,322.2l-3,2.3c-2.5-4.5-5.2-7.8-8.1-9.9l2.7-2C547.7,315.1,550.5,318.3,552.8,322.2z M567.4,314
				c-2.4,4.7-4.8,8.2-7.3,10.5l-2.8-2.1c2.7-2.5,5.1-5.8,7.1-9.9L567.4,314z"/>
		</g>
		<g>
			<path class="st1" d="M630.9,317h-14v6.9h10.8v28h-3.5v-3.7h-26.4v3.7h-3.6v-28h10.4V317h-13.4v-3.4h39.7V317z M624.2,344.7v-17.5
				h-7.3v7.3c0,0.7,0.4,1.1,1.2,1.1h1.3c0.5,0,1-1.1,1.5-3.2l3.1,1.7c-0.7,3.2-2,4.8-4,4.8h-3.1c-2.2,0-3.4-1.2-3.4-3.6v-8.2h-5.3
				c0,6.1-2.7,10.8-8,13.9l-2.4-2.3v5.9H624.2z M604.5,327.3h-6.7v11.1c2.6-1.6,4.3-3.2,5.3-4.9C604,331.8,604.5,329.7,604.5,327.3z
				 M613.4,323.9V317h-5.3v6.9H613.4z"/>
		</g>
	</g>
	<g>
		<g>
			<g>
				<rect x="316.8" y="206.7" class="st2" width="2.4" height="143.8"/>
			</g>
		</g>
	</g>
	<g>
		<g>
			<g>
				<path class="st0" d="M242.4,349.3c-2.6,0-6.8-0.2-9.5-0.7c-5.8-0.9-7.1-4.4-7.8-9.9c-0.4-3.8-0.7-30.5-0.9-57.1
					c-8.8,0.1-17.6,0.8-26.5,2.2c-0.1,13.3-0.2,26.5-0.3,36.7c-4-9.3-9.1-21.3-14.4-33.8c-1.7,0.4-3.4,0.8-5.1,1.2
					c-0.2,0.1-0.5,0.2-0.7,0.2c-6.2,1.6-12.2,3.8-17.4,5.8l20.3,51.2c0.9,2.2-0.5,4-1.8,4.2c-2,0.2-2.4,0.9-2.4,2
					c0,1.3,2.2,1.4,5.8,1.5c14.9,0.5,54.4,0.5,59.7,0.5c2.9,0,4.2-0.7,4.2-2C245.7,350.4,244.8,349.3,242.4,349.3z"/>
			</g>
		</g>
		<g>
			<g>
				<path class="st0" d="M276.7,265.1c-1.1,0-1.5,0.8-2.5,1.9c-1.7,2.3-6.9,7.3-11,5.3c0,0,0,0,0,0c-10.6-6.4-22.3-10.3-35.5-12.8
					c-1.1-0.2-2.3-0.4-3.5-0.6l-0.1-34.1c0-2.2,0.7-2.7,1.8-2.7l32.3,0.7c7.3,0.3,11.1,3.1,12.4,5.8c1.3,2.7,1.1,5.5,1.1,7.1
					c0,2.2,1.1,3.1,2.5,3.1c1.3,0,1.8-2.2,2-3.8c0.3-2.2,0.7-13.3,0.9-15.3c0.6-4.8,1.5-7.1,1.5-8.4c0-0.9-0.7-1.8-1.3-1.8
					c-1.1,0-2,0.9-3.1,1.1c-2,0.5-4.4,0.7-8,0.9c-4.6,0.3-73.2-0.4-83.2-0.4c-3.1,0-4.6,0.4-4.6,1.8c0,1.3,1.5,2,3.3,2
					c2.9,0,6.2,0.2,7.8,0.7c6.2,1.5,7.9,3.8,8.4,10.1c0.1,1.9,0.1,32,0.1,32c-8.5,0.5-17,1.8-25.4,4c-0.4-0.8-18.9-44.3-21-49
					c-2-4.2-2.9-6-5.7-6c-2,0-3.6,2.2-5.8,7.5L89.1,332.5c-2,4.6-3.7,8.3-6,11.1c-1.2,1.4-2.5,2.6-4.1,3.5c-1.7,1-3.7,1.6-6.1,2
					c-1.8,0-4,0.3-5.7,0.3c-1.5,0-2.2,0.9-2.2,2c0,1.5,1.1,2,3.5,2c10.2,0,20.6-0.7,22.6-0.7c6.2,0,15.2,0.7,21.7,0.7
					c2,0,3.1-0.5,3.1-2c0-1.1-0.5-2-2.9-2h-2.9c-6,0-7.7-2-7.7-5.3c0-2.2,10.1-29.2,10.1-29.2c4-2.9,8-5.8,12.1-8.4
					c0.3-0.2,0.5-0.3,0.7-0.5c1.5-1,3.1-2,4.7-3c4.4-2.7,9-5.1,13.5-7.4c0.1,0,0.1-0.1,0.1-0.1c2.9-1.5,5.9-2.9,8.9-4.2
					c0.2-0.1,0.4-0.2,0.5-0.2c1.7-0.7,3.4-1.4,5.1-2.1c5.9-2.4,11.8-4.5,18-6.1c0.3-0.1,0.5-0.2,0.8-0.2c1.3-0.4,2.7-0.7,4.1-1
					c5.5-1.3,11.1-2.4,16.7-3.2c8.7-1.3,17.6-2.1,26.5-2.1h2.3c12.6,0,23.8,0.7,36.1,2.6c4.8,1.1,7.1,6.2,7.8,8.5
					c0.8,2.1,1.3,4.2,1.3,5.5c0,1.3,0.6,2.5,1.7,2.5c1.9,0,2.1-2.5,2.1-4c0-1,2.1-23.8,2.1-24.8
					C277.7,265.7,277.3,265.1,276.7,265.1z M145.5,272c-0.7,0.3-1.3,0.7-2.1,1c-7,3.8-13.6,8.2-19.7,13.2l2-4.8l1.8-4.5l12.1-30.2
					c0.3-0.7,0.5-1.8,1.1-1.8c0.4,0,0.7,1.1,0.9,1.8l7.1,18.1l1,2.4l0.9,2.4C148.8,270.4,147.2,271.1,145.5,272z"/>
			</g>
		</g>
	</g>
</g>
</svg>
