<svg xmlns="http://www.w3.org/2000/svg" xmlns:xlink="http://www.w3.org/1999/xlink" width="160.704" height="48.249" viewBox="0 0 42.52 12.766"><defs><linearGradient id="a"><stop offset="0" stop-color="#0d86d9"/><stop offset="1" stop-color="#0d86d9" stop-opacity="0"/></linearGradient><linearGradient xlink:href="#a" id="b" x1="202.352" y1="95.009" x2="347.203" y2="95.009" gradientUnits="userSpaceOnUse" gradientTransform="matrix(.09812 0 0 .09812 -4.906 -3.682)"/></defs><path d="M17.757.163c-1.364.007-2.433.487-2.725 1.859-.548 2.582 1.663 8.322 4.496 9.273 2.279.765 4.96-1.57 6.206-3.857a1.3 1.3 0 0 1-.101-.033c-.423-.166-.634-.493-.634-.983 0-.092.01-.18.028-.267.112-.478.584-.784 1.411-.92a2.8 2.8 0 0 0-.25-1.315c-.031.062-.06.133-.086.214a1.77 1.77 0 0 1-.046.138c-.074.202-.206.303-.395.303a.607.607 0 0 1-.147-.018c-.184-.055-.276-.181-.276-.377 0-.104.034-.208.101-.312.122-.179.32-.309.593-.391-.79-1.142-2.404-1.903-4.212-2.51-1.328-.446-2.76-.81-3.963-.804zm8.175 3.314c.098.142.184.29.255.443a.579.579 0 0 1 .208-.254.693.693 0 0 1 .313-.065c.496.012.747.334.753.965v.588a6.886 6.886 0 0 0-1.023.08 3.404 3.404 0 0 1-.027.314c.052-.02.108-.04.168-.054.227-.055.521-.086.882-.092v.8c-.104.428-.318.713-.643.854a.709.709 0 0 1-.285.064c-.233 0-.4-.096-.501-.287-.087.2-.187.402-.298.605.131.039.272.059.423.059.465 0 .839-.16 1.12-.478.092-.11.163-.227.212-.35.092.546.367.821.827.828.428 0 .692-.193.79-.58.03-.11.049-.235.055-.376l-.239-.01c-.043.436-.16.656-.349.662-.147-.012-.224-.168-.23-.468v-1.93c-.012-.943-.53-1.417-1.552-1.424-.341 0-.627.036-.86.106zm.1 3.356c.15-.347.263-.687.331-1.007.02-.095.035-.187.048-.278-.329.131-.493.377-.493.736 0 .086.006.165.018.239.019.122.051.225.096.31z" fill="#0d86d9"/><g style="line-height:1.25;-inkscape-font-specification:'Abhaya Libre SemiBold, Semi-Bold';font-variant-ligatures:normal;font-variant-caps:normal;font-variant-numeric:normal;font-feature-settings:normal;text-align:start" aria-label="Avé France" font-weight="600" font-size="25.369" font-family="Abhaya Libre SemiBold" letter-spacing="0" word-spacing="0" stroke-width=".634"><path style="-inkscape-font-specification:'Abhaya Libre SemiBold, Semi-Bold';font-variant-ligatures:normal;font-variant-caps:normal;font-variant-numeric:normal;font-feature-settings:normal;text-align:start" d="M5.76 7.405q0-.212-.137-.23-.046-.01-.092-.01h-.294L3.105 1.893h-.487L.578 7.166H0v.239h1.654q0-.202-.12-.23-.055-.01-.11-.01H.946l.68-1.781H3.51l.689 1.782h-.616v.239zM3.4 5.117H1.726l.836-2.177zM7.717 3.711v-.23h-1.92v.23h.386l1.14 3.087q.192.515.367.598.11.055.285.055h.202L9.49 4.005q.11-.257.257-.284.046-.01.092-.01.174 0 .193-.073.018-.055.018-.156H8.61v.23h.716L8.186 6.687 7.084 3.711zM12.394 3.601q.588 0 .744.597.046.175.046.359 0 .45-.377.55-.211.056-.597.038l-.818-.019q.037-1.176.68-1.46.147-.065.322-.065zm1.644 2.894l-.22-.073q-.303.634-.937.78-.147.037-.294.037-1.149 0-1.195-1.837v-.018l1.002.018q1.259.027 1.57-.303.148-.175.148-.441 0-.69-.69-1.048-.459-.238-1.037-.238-1.094 0-1.626.836-.34.532-.34 1.24 0 1.222.89 1.755.488.294 1.103.294 1.038 0 1.498-.745.073-.128.128-.257zm-.918-4.327q.147-.147.156-.312 0-.276-.257-.414-.101-.055-.203-.055-.156.01-.275.11-.092.083-.46.588-.312.423-.606.717l.147.174q.239-.156 1.084-.57.303-.146.414-.238z" fill="#d7263d"/><path style="-inkscape-font-specification:'Abhaya Libre SemiBold, Semi-Bold';font-variant-ligatures:normal;font-variant-caps:normal;font-variant-numeric:normal;font-feature-settings:normal;text-align:start" d="M19.321 7.405v-.24H18.22v-2.47h1.846v-.267H18.22V2.131h1.304q.754.01 1.02.947l.166.532h.21l-.036-1.718h-4.382v.24h.735v5.034H16.5v.239zM23.428 7.175h-.67V5.402q0-.956.486-1.387.147-.129.267-.138.128 0 .257.22.156.276.312.331.065.018.138.018.322 0 .432-.303.027-.082.027-.165 0-.432-.431-.542-.101-.019-.202-.019-.552 0-.993.46-.202.22-.312.496l-.046-.891h-1.442v.23h.624v2.94q0 .413-.266.486-.12.037-.358.037v.23h2.407q0-.202-.12-.22-.046-.01-.11-.01z" fill="#fffffd"/><path style="-inkscape-font-specification:'Abhaya Libre SemiBold, Semi-Bold';font-variant-ligatures:normal;font-variant-caps:normal;font-variant-numeric:normal;font-feature-settings:normal;text-align:start" d="M31.302 7.175h-.34l.009-2.214q.064-.744.588-1.047.193-.11.395-.11.551 0 .707.55.046.184.046.386v1.911q0 .405-.22.487-.129.037-.358.037v.23h2.094q0-.202-.12-.22-.045-.01-.11-.01H33.6V4.86q0-.983-.68-1.341-.267-.147-.588-.147-.68 0-1.14.542-.147.183-.238.395l-.046-.827h-1.452v.23h.625v2.94q0 .413-.267.486-.128.037-.358.037v.23h2.076q0-.202-.12-.22-.045-.01-.11-.01zM34.747 5.466q0 1.204.891 1.737.496.294 1.13.294.956 0 1.452-.625.138-.175.22-.377l-.239-.073q-.303.661-1.01.79-.147.027-.294.027-.781 0-1.057-.882-.12-.395-.12-.928.01-1.819 1.067-1.828.459 0 .56.395.018.065.037.22.064.396.211.497.11.064.267.073.395.01.468-.312.018-.064.018-.12 0-.431-.542-.734-.45-.248-1.038-.248-1.112 0-1.663.826-.358.533-.358 1.268zM40.801 3.601q.588 0 .745.597.046.175.046.359 0 .45-.377.55-.211.056-.597.038l-.818-.019q.037-1.176.68-1.46.147-.065.321-.065zm1.645 2.894l-.22-.073q-.304.634-.938.78-.147.037-.294.037-1.148 0-1.194-1.837v-.018l1.001.018q1.26.027 1.572-.303.147-.175.147-.441 0-.69-.69-1.048-.459-.238-1.038-.238-1.093 0-1.626.836-.34.532-.34 1.24 0 1.222.891 1.755.487.294 1.103.294 1.038 0 1.497-.745.074-.128.129-.257z"/></g><path style="line-height:1.25;-inkscape-font-specification:'Abhaya Libre SemiBold, Semi-Bold';font-variant-ligatures:normal;font-variant-caps:normal;font-variant-numeric:normal;font-feature-settings:normal;text-align:start" d="M28.316 7.497q.643 0 .79-.58.046-.165.055-.376l-.239-.009q-.064.652-.349.661-.22-.018-.23-.468v-1.93q-.018-1.414-1.552-1.423-1.112 0-1.452.496-.101.156-.101.312 0 .294.276.377.073.018.147.018.284 0 .395-.303.018-.046.046-.138.119-.367.294-.468.128-.065.312-.065.744.019.753.965v.588q-2.205.027-2.434 1.001-.028.129-.028.267 0 .735.634.983.239.092.524.092.698 0 1.12-.478.138-.165.212-.35.138.818.827.828zm-1.783-.377q-.505 0-.597-.597-.018-.11-.018-.24 0-.624.661-.79.34-.082.882-.091v.8q-.156.642-.643.854-.147.064-.285.064z" font-weight="600" font-size="25.369" font-family="Abhaya Libre SemiBold" letter-spacing="0" word-spacing="0"/><path d="M26.032 6.67c.15-.348.263-.687.331-1.008.02-.094.035-.186.048-.277-.329.131-.493.376-.493.736 0 .085.006.165.018.239.019.122.051.225.096.31z" fill="url(#b)" fill-rule="evenodd"/><g aria-label="艾蔚法兰西" style="line-height:1.25" font-weight="400" font-size="10.583" font-family="sans-serif" letter-spacing="0" word-spacing="0" stroke-width=".265"><path d="M23.66 10.548q.374.676.86 1.15-.628.475-1.574.683l.2.322q.958-.275 1.606-.793.675.57 1.546.79l.18-.307q-.855-.173-1.49-.69.517-.495.8-1.178l-.283-.18q-.247.682-.75 1.153-.466-.451-.796-1.114zm1.85-1.467h-.338q.02.082.02.18v.275h-.958V9.26q0-.11.02-.18h-.338q.02.082.02.18v.275h-.691q-.157 0-.216-.02v.33q.086-.016.263-.016h.643v.267q0 .083-.02.153h.338q-.02-.082-.02-.184V9.83h.958v.267q0 .086-.02.153h.338q-.02-.082-.02-.184V9.83h.68q.168 0 .231.02v-.334q-.082.02-.282.02h-.628V9.26q0-.11.02-.18zM28.23 9.379q0-.27.019-.31h-.334q.02.043.02.31h-.938q-.09 0-.153-.016v.314q.07-.016.153-.016h.938q0 .209-.02.244h.334q-.02-.043-.02-.244h.836q0 .205-.02.244h.334q-.02-.043-.02-.244h.942q.079 0 .13.016v-.314q-.07.016-.153.016h-.919q0-.275.02-.314h-.334q.02.043.02.314zm-.825 1.02v-.192h1.173v.192zm0 .84v-.561h1.17q0 .02-.016.098h.333q-.02-.094-.02-.169v-.679h-1.805l.04.934q.004.095.004.181 0 .797-.318 1.252l.286.345q.326-.584.326-1.4zm1.287.38l-.286.056q.188.428.247.812l.31-.16q-.106-.456-.27-.707zm-1.126.908q.255-.338.345-.84l-.27-.083q-.044.37-.319.671zm.985-1.684h-.762q-.164 0-.204-.02v.318q.09-.02.232-.02h.773q.079 0 .165.02v-.318q-.055.02-.204.02zm.573.086l-.224.145q.361.37.514.82l.287-.18q-.18-.408-.577-.785zm-1.036 1.739q.247 0 .247-.236v-.887h.396q.079 0 .15.02v-.318q-.06.02-.185.02h-1.052q-.117 0-.184-.02v.318q.086-.02.176-.02h.4v.793q0 .032-.09.032-.086 0-.22-.055l.118.353zm1.75-1.97v1.632q0 .055-.133.055-.134 0-.44-.086l.157.385h.463q.248 0 .248-.283v-1.703h.168q.079 0 .18.015v-.333q-.09.02-.191.02h-.157v-.436q0-.102.02-.177h-.334q.02.086.02.177v.435h-.644q-.134 0-.193-.02v.334q.09-.015.247-.015zM31.255 12.534q.247-.412.432-1.051l.066-.177-.321-.086q0 .09-.028.18-.263.852-.596 1.13l.349.181zm.33-1.907q-.263-.243-.68-.463l-.227.22q.338.14.683.494zm.235-.844q-.27-.333-.553-.573l-.287.145q.373.29.57.613zm1.888 2.15q-.251.15-1.174.264.287-.487.405-1.107h1.263q.099 0 .181.02v-.334q-.086.02-.353.02h-.824v-.703h.832q.078 0 .14.02v-.338q-.085.02-.274.02h-.698v-.408q0-.114.02-.189h-.338q.02.04.02.189v.408h-.782q-.125 0-.176-.02v.338q.039-.02.282-.02h.675v.703h-.98q-.107 0-.181-.02v.334q.078-.02.18-.02h.699q-.138.667-.487 1.154l-.177.012q-.058.004-.137.004-.074 0-.196-.012l.157.341q.02-.02.345-.047 1.146-.098 1.72-.341.042.09.125.302.078.212.078.263l.334-.157q-.075-.145-.153-.29-.18-.416-.451-.848-.032-.047-.09-.173l-.31.15q.148.148.325.486zM37.223 9.259l.368.107q-.215.445-.46.767h.95v.291h-3.097v-.291h1.794q.26-.414.445-.874zm-1.503.03q.291.292.475.63l-.276.168q-.168-.338-.46-.644zm-.521 1.886h2.606v.291H35.2zm-.43 1.089h3.435v.291H34.77zM41.683 12.519q0 .09-.016.165h.334q-.02-.079-.02-.173v-2.233h-1.09V9.68h1.118q.082 0 .145.02v-.334q-.07.016-.157.016h-3.148q-.14 0-.18-.02v.338q.082-.02.173-.02h1.04v.597h-1.04v2.233q0 .102-.02.173h.334q-.016-.083-.016-.165zm-1.507-1.637v-.31h.416v.655q.008.29.04.29.078.217.329.217h.228q.321 0 .333-.538 0-.165.016-.196h-.334q.016.05.016.24 0 .188-.07.2h-.181q-.079 0-.079-.224v-.644h.793v1.648H39.14v-1.648h.742l-.004.298q0 .522-.656.609l.102.204q.047.11.047.149l.385-.2q.388-.263.42-.75zm0-.604V9.68h.416v.597z"/></g></svg>