<?xml version="1.0" encoding="utf-8"?>
<!-- Generator: Adobe Illustrator 21.1.0, SVG Export Plug-In . SVG Version: 6.00 Build 0)  -->
<svg version="1.1" id="Layer_1" xmlns="http://www.w3.org/2000/svg" xmlns:xlink="http://www.w3.org/1999/xlink" x="0px" y="0px"
	 viewBox="0 0 557.3 494" style="enable-background:new 0 0 557.3 494;" xml:space="preserve">
<style type="text/css">
	.st0{fill:url(#SVGID_1_);}
	.st1{fill:#FFFFFF;}
</style>
<g transform="translate(300,300)">
	<linearGradient id="SVGID_1_" gradientUnits="userSpaceOnUse" x1="40.704" y1="159.5297" x2="-138.3832" y2="-220.9463">
		<stop  offset="0" style="stop-color:#D7263D"/>
		<stop  offset="1" style="stop-color:#FF0066"/>
	</linearGradient>
	<path class="st0" d="M151-203.8c54.9,54.1,99.3,119.3,105.5,190.5s-25.9,148.7-80.7,179.4C121,196.8,43.5,180.7-36.9,183.7
		c-80.4,2.9-163.7,25-211.2-5.7s-58.8-114-48.4-187c10.4-72.9,42.7-135.5,90.1-189.7C-159-252.9-96.4-298.8-32.6-300
		C31.1-301.3,96.2-258,151-203.8z"/>
</g>
<g>
	<g>
		<g>
			<path class="st1" d="M345.7,289.3c0-2.5-2-4.5-4.5-4.5h-26.8c-2.5,0-4.5,2-4.5,4.5s2,4.5,4.5,4.5h26.8
				C343.7,293.8,345.7,291.8,345.7,289.3z"/>
			<path class="st1" d="M327.8,173.2v-22.3c0-2.5-2-4.5-4.5-4.5c-2.5,0-4.5,2-4.5,4.5v22.3c0,12.3,10,22.3,22.3,22.3h40.2v84.9
				c0,2.5,2,4.5,4.5,4.5c2.5,0,4.5-2,4.5-4.5V191c0-2.5-2-4.5-4.5-4.5h-44.7C333.8,186.6,327.8,180.6,327.8,173.2z"/>
			<path class="st1" d="M341.2,231.2h-35.7c-2.5,0-4.5,2-4.5,4.5s2,4.5,4.5,4.5h35.7c2.5,0,4.5-2,4.5-4.5
				C345.7,233.2,343.7,231.2,341.2,231.2z"/>
			<path class="st1" d="M292.1,235.7c0-2.5-2-4.5-4.5-4.5h-26.8c-2.5,0-4.5,2-4.5,4.5c0,2.5,2,4.5,4.5,4.5h26.8
				C290.1,240.2,292.1,238.2,292.1,235.7z"/>
			<path class="st1" d="M260.8,258c-2.5,0-4.5,2-4.5,4.5c0,2.5,2,4.5,4.5,4.5h8.9c2.5,0,4.5-2,4.5-4.5c0-2.5-2-4.5-4.5-4.5H260.8
				L260.8,258z"/>
			<path class="st1" d="M260.8,213.4h44.7c2.5,0,4.5-2,4.5-4.5s-2-4.5-4.5-4.5h-44.7c-2.5,0-4.5,2-4.5,4.5
				C256.3,211.4,258.3,213.4,260.8,213.4z"/>
			<path class="st1" d="M287.6,267h44.7c2.5,0,4.5-2,4.5-4.5c0-2.5-2-4.5-4.5-4.5h-44.7c-2.5,0-4.5,2-4.5,4.5
				C283.1,265,285.1,267,287.6,267z"/>
			<path class="st1" d="M314.4,311.6c-2.5,0-4.5,2-4.5,4.5c0,2.5,2,4.5,4.5,4.5h8.9c2.5,0,4.5-2,4.5-4.5c0-2.5-2-4.5-4.5-4.5H314.4z
				"/>
			<path class="st1" d="M296.5,284.8h-35.7c-2.5,0-4.5,2-4.5,4.5s2,4.5,4.5,4.5h35.7c2.5,0,4.5-2,4.5-4.5S299,284.8,296.5,284.8z"/>
			<path class="st1" d="M296.5,311.6h-35.7c-2.5,0-4.5,2-4.5,4.5c0,2.5,2,4.5,4.5,4.5h35.7c2.5,0,4.5-2,4.5-4.5
				C301,313.6,299,311.6,296.5,311.6z"/>
			<path class="st1" d="M402.9,308l-8.9-8.9c-6.9-6.9-17.3-6.9-24.2,0l-58.5,58.5c-0.8,0.8-1.3,2-1.3,3.2v26.8c0,2.5,2,4.5,4.5,4.5
				h26.8c1.2,0,2.3-0.5,3.2-1.3l58.5-58.5C410,325.1,410,315.1,402.9,308z M364,317.5l7.1,7.1l-38.8,38.8l-7.1-7.1L364,317.5z
				 M318.9,383.1v-20.5l20.5,20.5H318.9z M345.7,376.8l-7.1-7.1l38.8-38.8l7.1,7.1L345.7,376.8z M396.6,325.9l-5.8,5.8l-20.5-20.5
				l5.8-5.8c3.5-3.5,8-3.5,11.6,0l8.9,8.9C400.2,318,400.2,322.3,396.6,325.9z"/>
			<path class="st1" d="M296.5,383.1H180.4c-7.4,0-13.4-6-13.4-13.4V146.4c0-7.4,6-13.4,13.4-13.4h141.1l43.4,43.4
				c1.7,1.7,4.6,1.7,6.3,0c1.7-1.7,1.7-4.6,0-6.3l-44.7-44.7c-0.8-0.8-2-1.3-3.2-1.3H180.4c-12.3,0-22.3,10-22.3,22.3v223.3
				c0,12.3,10,22.3,22.3,22.3h116.1c2.5,0,4.5-2,4.5-4.5C301,385.1,299,383.1,296.5,383.1z"/>
			<path class="st1" d="M296.5,338.4h-35.7c-2.5,0-4.5,2-4.5,4.5s2,4.5,4.5,4.5h35.7c2.5,0,4.5-2,4.5-4.5S299,338.4,296.5,338.4z"/>
			<path class="st1" d="M238.5,208.9c0-2.5-2-4.5-4.5-4.5h-26.8c-2.5,0-4.5,2-4.5,4.5v26.8c0,2.5,2,4.5,4.5,4.5H234
				c2.5,0,4.5-2,4.5-4.5V208.9z M229.5,231.2h-17.9v-17.9h17.9V231.2z"/>
			<path class="st1" d="M207.2,347.4H234c2.5,0,4.5-2,4.5-4.5v-26.8c0-2.5-2-4.5-4.5-4.5h-26.8c-2.5,0-4.5,2-4.5,4.5v26.8
				C202.7,345.4,204.7,347.4,207.2,347.4z M211.7,320.6h17.9v17.9h-17.9C211.7,338.4,211.7,320.6,211.7,320.6z"/>
			<path class="st1" d="M213,292.5c0.8,0.8,2,1.3,3.2,1.3c0.1,0,0.3,0,0.4,0c1.3-0.1,2.5-0.9,3.3-2l17.9-26.8
				c1.4-2.1,0.8-4.8-1.2-6.2c-2.1-1.4-4.8-0.8-6.2,1.2l-14.8,22.3l-5.1-5.1c-1.7-1.7-4.6-1.7-6.3,0c-1.7,1.7-1.7,4.6,0,6.3
				L213,292.5z"/>
		</g>
	</g>
</g>
</svg>
