<?xml version="1.0" encoding="utf-8"?>
<!-- Generator: Adobe Illustrator 21.1.0, SVG Export Plug-In . SVG Version: 6.00 Build 0)  -->
<svg version="1.1" id="Layer_1" xmlns="http://www.w3.org/2000/svg" xmlns:xlink="http://www.w3.org/1999/xlink" x="0px" y="0px"
	 viewBox="0 0 420.4 370.9" style="enable-background:new 0 0 420.4 370.9;" xml:space="preserve">
<style type="text/css">
	.st0{fill:url(#SVGID_1_);}
	.st1{fill:#FFFFFF;}
</style>
<g transform="translate(300,300)">
	<linearGradient id="SVGID_1_" gradientUnits="userSpaceOnUse" x1="-162.1069" y1="-263.6531" x2="36.7932" y2="80.8521">
		<stop  offset="0" style="stop-color:#8A6AFF"/>
		<stop  offset="1" style="stop-color:#0D86D9"/>
	</linearGradient>
	<path class="st0" d="M67.7-258.2c35,35,47.2,92.8,51.4,154.6c4.1,61.9,0.1,127.9-34.9,156.2c-35,28.4-101,19-151.8,3.8
		C-118.4,41.2-154,20.1-198.5-8.2s-97.9-63.9-101.3-102.9s43.1-81.5,87.6-116.5s87-62.5,137.1-70.2
		C-25.1-305.4,32.7-293.2,67.7-258.2z"/>
</g>
<g>
	<g>
		<g>
			<path class="st1" d="M137.7,244c0.5,0,1-0.1,1.5-0.3c11.7-5.1,31.3-7.7,58.5-7.9l2.6,5.3c0.9,1.8,3.1,2.5,4.9,1.6
				c1.8-0.9,2.5-3.1,1.6-4.9l-3.7-7.3c-0.6-1.2-1.9-2-3.3-2c-29.8,0-50.6,2.8-63.7,8.5c-1.8,0.8-2.7,3-1.9,4.8
				C135,243.2,136.3,244,137.7,244z"/>
			<path class="st1" d="M327.9,250.4h-7.3v-18.3c0-1-0.4-1.9-1.1-2.6l-22-22c0.7-1.4,1.1-3,1.1-4.7c0-6-4.9-11-11-11s-11,4.9-11,11
				s4.9,11,11,11c1.7,0,3.3-0.4,4.7-1.1l20.9,20.9v16.8h-190c-4,0-7.3,3.3-7.3,7.3v11c0,2,1.6,3.7,3.7,3.7c2,0,3.7-1.6,3.7-3.7v-11
				h204.6v11c0,2,1.6,3.7,3.7,3.7c2,0,3.7-1.6,3.7-3.7v-11C335.2,253.7,331.9,250.4,327.9,250.4z M287.7,206.6c-2,0-3.7-1.6-3.7-3.7
				s1.6-3.7,3.7-3.7c2,0,3.7,1.6,3.7,3.7S289.7,206.6,287.7,206.6z"/>
			<path class="st1" d="M168.1,162.4c2.7,6.9,11.5,29.3,17.9,38.9l0.6,0.9c4.7,7.1,12.5,19,39,19c26.5,0,34.3-11.9,39-19l0.6-0.9
				c6.4-9.6,15.2-32,17.9-38.9c4.8-1.2,8.3-5.5,8.3-10.6v-14.6c0-4.8-3.1-8.8-7.3-10.3v-18.9c0-14.4-7.6-41.1-35.7-43.7
				c-0.1-1.7-0.6-3.1-1.3-4.1c-3.6-5.8-13.7-7-21.5-7c-65,0-65.8,61.5-65.8,62.1c0,2,1.6,3.7,3.6,3.7h0c2,0,3.6-1.6,3.7-3.6
				c0-2.2,0.8-54.8,58.5-54.8c10.3,0,14.5,2.2,15.3,3.6c0.1,0.2,0.4,0.7-0.3,2.1c-0.6,1.1-0.5,2.5,0.2,3.6c0.7,1.1,1.8,1.7,3.1,1.7
				c32.4,0,32.9,35.1,32.9,36.5v21.9c0,2,1.6,3.7,3.7,3.7c2,0,3.7,1.6,3.7,3.7v14.6c0,2-1.6,3.7-3.7,3.7c-1.5,0-2.9,0.9-3.4,2.4
				c-0.1,0.3-10.9,29-17.9,39.5l-0.6,0.9c-4.4,6.6-10.4,15.7-32.9,15.7c-22.5,0-28.5-9.1-32.9-15.7l-0.6-0.9
				c-7-10.5-17.8-39.2-17.9-39.5c-0.5-1.4-1.9-2.4-3.4-2.4c-2,0-3.7-1.6-3.7-3.7v-14.6c0-1,0.4-1.9,1-2.5c1.3,3,4,5.7,8.6,6.1
				l12.5,9.4c1,7.1,7,12.6,14.4,12.6h7.3c8.1,0,14.6-6.6,14.6-14.6c0,8.1,6.6,14.6,14.6,14.6h7.3c7.4,0,13.4-5.5,14.4-12.6l13.4-10
				c1.6-1.2,1.9-3.5,0.7-5.1c-1.2-1.6-3.5-1.9-5.1-0.7l-9.3,7c-1.4-4.5-5.5-7.7-10.4-7.7h-14.6c-6,0-11,4.9-11,11c0-6-4.9-11-11-11
				H200c-4.9,0-9,3.3-10.4,7.7l-7-5.2c2.9-7,5.5-17.2,6.2-24.4c11.5-0.2,44.8-1.6,59.7-10.9c3.4,13,14.2,23.9,14.7,24.4
				c1.4,1.4,3.7,1.4,5.2,0c1.4-1.4,1.4-3.7,0-5.2c-0.1-0.1-13.5-13.7-13.5-26.7c0-1.6-1.1-3.1-2.7-3.5c-1.6-0.4-3.3,0.2-4.1,1.6
				c-5.3,8.9-39.8,12.8-62.6,12.8c-2,0-3.7,1.6-3.7,3.7c0,5.9-2.8,17.8-5.8,25.1c-1.2-0.7-1.5-2-1.5-3.1c0-2-1.6-3.7-3.7-3.7
				c-6,0-11,4.9-11,11v14.6C159.8,156.9,163.3,161.2,168.1,162.4z M232.9,144.5c0-2,1.6-3.7,3.7-3.7h14.6c2,0,3.7,1.6,3.7,3.7v3.7
				c0,4-3.3,7.3-7.3,7.3h-7.3c-4,0-7.3-3.3-7.3-7.3L232.9,144.5L232.9,144.5z M196.3,144.5c0-2,1.6-3.7,3.7-3.7h14.6
				c2,0,3.7,1.6,3.7,3.7v3.7c0,4-3.3,7.3-7.3,7.3h-7.3c-4,0-7.3-3.3-7.3-7.3V144.5z"/>
			<path class="st1" d="M243.8,184.7c0-2-1.6-3.7-3.6-3.7c-0.1,0-6.6-0.1-13-3.3c-1-0.5-2.2-0.5-3.3,0c-6.4,3.2-12.9,3.3-13,3.3
				c-2,0-3.7,1.6-3.7,3.7c0,2,1.6,3.7,3.7,3.7c0.3,0,7.2,0,14.6-3.3c7.4,3.2,14.3,3.3,14.6,3.3C242.2,188.3,243.8,186.7,243.8,184.7
				z"/>
			<path class="st1" d="M251.1,228.7c-1.4,0-2.6,0.8-3.2,2l-3.7,7.2c-0.9,1.8-0.2,4,1.6,4.9c0.5,0.3,1.1,0.4,1.7,0.4
				c1.3,0,2.6-0.7,3.3-2l2.6-5.2c20,0.1,36.1,1.5,47.9,4.4c2,0.5,3.9-0.7,4.4-2.7c0.5-2-0.7-3.9-2.7-4.4
				C290.2,230.2,272.8,228.5,251.1,228.7z"/>
			<path class="st1" d="M221.9,232.2v7.3c0,2,1.6,3.7,3.7,3.7s3.7-1.6,3.7-3.7v-7.3c0-2-1.6-3.7-3.7-3.7S221.9,230.1,221.9,232.2z"
				/>
			<path class="st1" d="M221.9,192c-2,0-3.7,1.6-3.7,3.7c0,2,1.6,3.7,3.7,3.7h7.3c2,0,3.7-1.6,3.7-3.7c0-2-1.6-3.7-3.7-3.7H221.9z"
				/>
		</g>
	</g>
</g>
</svg>
