<?xml version="1.0" encoding="utf-8"?>
<!-- Generator: Adobe Illustrator 21.1.0, SVG Export Plug-In . SVG Version: 6.00 Build 0)  -->
<svg version="1.1" id="Layer_1" xmlns="http://www.w3.org/2000/svg" xmlns:xlink="http://www.w3.org/1999/xlink" x="0px" y="0px"
	 viewBox="0 0 565.5 572.4" style="enable-background:new 0 0 565.5 572.4;" xml:space="preserve">
<style type="text/css">
	.st0{fill:url(#SVGID_1_);}
	.st1{fill:#FFFFFF;}
</style>
<g transform="translate(300,300)">
	<linearGradient id="SVGID_1_" gradientUnits="userSpaceOnUse" x1="142.0721" y1="205.9188" x2="-114.7789" y2="-238.9602">
		<stop  offset="0" style="stop-color:#D7263D"/>
		<stop  offset="1" style="stop-color:#FF0066"/>
	</linearGradient>
	<path class="st0" d="M192-244.7C239.2-202.1,267.6-136,265.4-72c-2.4,63.9-35.5,125.3-82.7,194C135.2,190.6,73.8,266.2,6.4,272
		c-67.4,6-140.6-58-202.9-126.6C-258.7,76.8-310,3.5-298.3-58.2c11.5-61.7,85.7-111.8,148-154.4c62.2-42.6,112.3-77.6,170.6-85.6
		C78.4-306.3,144.6-287.2,192-244.7z"/>
</g>
<g>
	<g>
		<g>
			<path class="st1" d="M314,241c0,3,2.4,5.4,5.4,5.4h54.3c3,0,5.4-2.4,5.4-5.4s-2.4-5.4-5.4-5.4h-54.3C316.4,235.6,314,238,314,241
				z"/>
			<path class="st1" d="M346.6,273.6c0,3,2.4,5.4,5.4,5.4h32.6c3,0,5.4-2.4,5.4-5.4s-2.4-5.4-5.4-5.4H352
				C349,268.1,346.6,270.6,346.6,273.6z"/>
			<path class="st1" d="M341.1,213.8c3,0,5.4-2.4,5.4-5.4c0-3-2.4-5.4-5.4-5.4h-10.9c-3,0-5.4,2.4-5.4,5.4c0,3,2.4,5.4,5.4,5.4
				H341.1z"/>
			<path class="st1" d="M276,268.1c-3,0-5.4,2.4-5.4,5.4s2.4,5.4,5.4,5.4h54.3c3,0,5.4-2.4,5.4-5.4s-2.4-5.4-5.4-5.4H276z"/>
			<path class="st1" d="M303.1,420.2H199.9c-9,0-16.3-7.3-16.3-16.3V154.1c0-3-2.4-5.4-5.4-5.4c-15,0-27.2,12.2-27.2,27.2
				c0,3,2.4,5.4,5.4,5.4c3,0,5.4-2.4,5.4-5.4c0-7.1,4.5-13.1,10.9-15.4v243.5c0,15,12.2,27.2,27.2,27.2h103.2c3,0,5.4-2.4,5.4-5.4
				C308.5,422.7,306.1,420.2,303.1,420.2z"/>
			<path class="st1" d="M221.6,246.4h76c3,0,5.4-2.4,5.4-5.4s-2.4-5.4-5.4-5.4h-76c-3,0-5.4,2.4-5.4,5.4S218.6,246.4,221.6,246.4z"
				/>
			<path class="st1" d="M221.6,213.8h21.7c3,0,5.4-2.4,5.4-5.4c0-3-2.4-5.4-5.4-5.4h-21.7c-3,0-5.4,2.4-5.4,5.4
				C216.2,211.4,218.6,213.8,221.6,213.8z"/>
			<path class="st1" d="M308.5,203h-43.5c-3,0-5.4,2.4-5.4,5.4s2.4,5.4,5.4,5.4h43.5c3,0,5.4-2.4,5.4-5.4
				C314,205.4,311.6,203,308.5,203z"/>
			<path class="st1" d="M384.6,127H178.2c-26.9,0-48.8,21.8-48.9,48.7v0.1v0.1v0.1v0.1c0.1,17.3,9.4,33.5,24.4,42.2
				c2.6,1.5,5.9,0.6,7.4-2c1.5-2.6,0.6-5.9-2-7.4c-11.7-6.8-19-19.4-19-32.9c0-20.9,17.1-38,38-38h206.4c21,0,38,17.1,38,38v228.1
				c0,2.8-0.8,5.5-2.2,8c-1.5,2.6-0.7,5.9,1.9,7.4c0.9,0.5,1.8,0.7,2.7,0.7c1.9,0,3.7-1,4.7-2.7c2.4-4.1,3.7-8.8,3.7-13.5V175.9
				C433.5,149,411.6,127,384.6,127z"/>
			<path class="st1" d="M400.9,376.8c0-18-14.6-32.6-32.6-32.6c-18,0-32.6,14.6-32.6,32.6c0,18,14.6,32.6,32.6,32.6
				C386.3,409.4,400.9,394.8,400.9,376.8z M368.3,398.5c-12,0-21.7-9.7-21.7-21.7s9.7-21.7,21.7-21.7c12,0,21.7,9.7,21.7,21.7
				S380.3,398.5,368.3,398.5z"/>
			<path class="st1" d="M358.5,414.8c-2.6-1.5-5.9-0.6-7.4,2l-11.7,20.3l-1.9-2.8c-0.9-1.4-2.5-2.3-4.2-2.4l-3.4-0.2l11.9-20.6
				c1.5-2.6,0.6-5.9-2-7.4c-2.6-1.5-5.9-0.6-7.4,2l-16.3,28.2c-0.9,1.6-1,3.6-0.1,5.3c0.9,1.7,2.6,2.7,4.5,2.8l9.4,0.6l5.2,7.9
				c1,1.5,2.7,2.4,4.5,2.4h0.2c1.9-0.1,3.6-1.1,4.5-2.7l16.1-27.9C362,419.6,361.1,416.3,358.5,414.8z"/>
			<path class="st1" d="M404.3,405.9c-1.5-2.6-4.8-3.5-7.4-2c-2.6,1.5-3.5,4.8-2,7.4l11.7,20.3l-3.4,0.2c-1.7,0.1-3.3,1-4.2,2.4
				l-1.8,2.8l-11.6-20.2c-1.5-2.6-4.8-3.5-7.4-2c-2.6,1.5-3.5,4.8-2,7.4l16,27.8c0.9,1.6,2.7,2.7,4.5,2.7h0.2c1.8,0,3.5-0.9,4.5-2.4
				l5.2-7.9l9.4-0.6c1.9-0.1,3.6-1.2,4.5-2.8c0.9-1.7,0.9-3.7-0.1-5.3L404.3,405.9z"/>
			<path class="st1" d="M221.6,279h32.6c3,0,5.4-2.4,5.4-5.4s-2.4-5.4-5.4-5.4h-32.6c-3,0-5.4,2.4-5.4,5.4S218.6,279,221.6,279z"/>
			<path class="st1" d="M221.6,311.6h65.2c3,0,5.4-2.4,5.4-5.4c0-3-2.4-5.4-5.4-5.4h-65.2c-3,0-5.4,2.4-5.4,5.4
				C216.2,309.2,218.6,311.6,221.6,311.6z"/>
			<path class="st1" d="M222.2,379.2c1.3,2.7,4.6,3.8,7.3,2.4c2.7-1.3,3.8-4.6,2.4-7.3c-5.4-10.8-6.6-20.4-3.2-25.8
				c1.8-2.9,4.9-4.3,9.2-4.3c2.6,0,3.6,0.9,4.2,1.8c4,5.8,0.2,23.6-3.8,34.4c-0.9,2.4,0,5.1,2.2,6.5c2.1,1.4,5,1.1,6.8-0.7
				c2.3-2.3,4.8-4.6,7-6.5v2.7c0,2.2,1.3,4.2,3.4,5c2,0.8,4.4,0.4,5.9-1.2c2.5-2.5,5.4-4.9,7.8-6.7c-0.1,0.1-0.1,0.3-0.2,0.4
				c-0.8,1.7-0.7,3.7,0.3,5.3c1,1.6,2.7,2.6,4.6,2.6h21.7c3,0,5.4-2.4,5.4-5.4c0-3-2.4-5.4-5.4-5.4h-14.1c0.4-2.6,0.3-5.2-1-7.3
				c-1.4-2.2-3.8-3.5-6.6-3.5c-3.4,0-7.3,2-10.9,4.6c-0.3-2.4-1.7-4.3-3.8-5.2c-1.5-0.6-3.3-1.4-7.9,1.3c1.8-9.4,2.3-20.1-2.4-26.9
				c-2-2.9-6-6.4-13.1-6.4c-8.1,0-14.7,3.4-18.5,9.5C214,351.6,215,364.9,222.2,379.2z"/>
			<path class="st1" d="M368.3,306.2c0-3-2.4-5.4-5.4-5.4h-54.3c-3,0-5.4,2.4-5.4,5.4s2.4,5.4,5.4,5.4h54.3
				C365.9,311.6,368.3,309.2,368.3,306.2z"/>
		</g>
	</g>
</g>
</svg>
